<svg xmlns="http://www.w3.org/2000/svg" viewBox="-301.2363484258947,-304.8027310139034,619.1645929843323,621.5047883778603" xoverflow="visible" style="max-height: 10vh; max-width: 200px"><defs><marker id="arrow" viewBox="0 0 10 10" refX="15" refY="5" orient="auto-start-reverse" markerWidth="6" markerHeight="6" xoverflow="visible"><path d="M 0 0 L 10 5 L 0 10 z"></path></marker></defs><g stroke="#666" stroke-opacity="0.9"><line stroke-width="1.5" marker-end="url(#arrow)" x1="-83.86851327743798" y1="145.65534000183735" x2="-86.98709936158185" y2="108.61985907469739"></line><line stroke-width="1.5" marker-end="url(#arrow)" x1="-224.65407028869964" y1="190.03044597185354" x2="-194.69759009814058" y2="176.68507816158223"></line><line stroke-width="1.5" marker-end="url(#arrow)" x1="164.13432471698138" y1="216.76584533827562" x2="150.1983657328619" y2="242.70922443368806"></line><line stroke-width="1.5" marker-end="url(#arrow)" x1="-122.61877325754169" y1="91.07755575270215" x2="-144.2903856231957" y2="62.71078546857225"></line><line stroke-width="1.5" marker-end="url(#arrow)" x1="-214.42359418762965" y1="55.888573889969074" x2="-163.74900922004795" y2="32.14115024434382"></line><line stroke-width="1.5" marker-end="url(#arrow)" x1="203.394290823676" y1="-145.20433044588563" x2="202.06306611404185" y2="-115.05510413523969"></line><line stroke-width="1.5" marker-end="url(#arrow)" x1="192.49434350257434" y1="66.84582969398237" x2="153.20108982794054" y2="77.56707975668208"></line><line stroke-width="1.5" marker-end="url(#arrow)" x1="-158.11309568756164" y1="-187.92574374099658" x2="-157.83532013319362" y2="-150.07237356959814"></line><line stroke-width="1.5" marker-end="url(#arrow)" x1="-12.183627385758674" y1="213.2894283291893" x2="-5.471347871350621" y2="177.62185282412062"></line><line stroke-width="1.5" marker-end="url(#arrow)" x1="-58.88976564225528" y1="-11.026297702355238" x2="-90.56434946968096" y2="0.15677550229725604"></line><line stroke-width="1.5" marker-end="url(#arrow)" x1="-194.69759009814058" y1="176.68507816158223" x2="-160.28682363825325" y2="155.61030828862334"></line><line stroke-width="1.5" marker-end="url(#arrow)" x1="-141.5185600572627" y1="-131.2395939727633" x2="-155.5026261378023" y2="-99.6845655586071"></line><line stroke-width="1.5" marker-end="url(#arrow)" x1="43.54649145026545" y1="230.8635988868479" x2="46.74461172635844" y2="200.06195878724483"></line><line stroke-width="1.5" marker-end="url(#arrow)" x1="-247.44384060323478" y1="-125.56012111424754" x2="-211.55376322490002" y2="-111.11147347283723"></line><line stroke-width="1.5" marker-end="url(#arrow)" x1="174.46772328258507" y1="136.65871741255165" x2="144.14832066404807" y2="137.3086483275929"></line><line stroke-width="1.5" marker-end="url(#arrow)" x1="-180.06793804365108" y1="64.85946808446863" x2="-163.74900922004795" y2="32.14115024434382"></line><line stroke-width="1.5" marker-end="url(#arrow)" x1="-23.178146721339665" y1="134.08566505860387" x2="-16.212229300290637" y2="104.27382049221819"></line><line stroke-width="1.5" marker-end="url(#arrow)" x1="-61.13710368686064" y1="174.45346351466793" x2="-60.70519777902329" y2="138.0719094852978"></line><line stroke-width="1.5" marker-end="url(#arrow)" x1="-12.588367191724245" y1="11.27438383724849" x2="-6.569341334053996" y2="42.49554281948976"></line><line stroke-width="1.5" marker-end="url(#arrow)" x1="138.10246402884562" y1="36.74190628599838" x2="104.22215259500895" y2="53.43871090413222"></line><line stroke-width="1.5" marker-end="url(#arrow)" x1="-48.06826310375386" y1="-203.2637946445669" x2="-155.5026261378023" y2="-99.6845655586071"></line><line stroke-width="1.5" marker-end="url(#arrow)" x1="16.726443341956966" y1="-1.4604437582602525" x2="21.248156830238475" y2="29.692389711821242"></line><line stroke-width="1.5" marker-end="url(#arrow)" x1="-16.212229300290637" y1="104.27382049221819" x2="-28.176510392957347" y2="77.18592636296621"></line><line stroke-width="1.5" marker-end="url(#arrow)" x1="-64.11035071721358" y1="74.34176967472328" x2="-96.19400180097507" y2="73.46789985159413"></line><line stroke-width="1.5" marker-end="url(#arrow)" x1="276.6177327084884" y1="124.95350137736484" x2="263.4269944431039" y2="152.38553817627042"></line><line stroke-width="1.5" marker-end="url(#arrow)" x1="104.22215259500895" y1="53.43871090413222" x2="67.04970726871144" y2="70.13995215818721"></line><line stroke-width="1.5" marker-end="url(#arrow)" x1="174.19928671724304" y1="250.34839808901683" x2="143.9083784831473" y2="268.49591504535425"></line><line stroke-width="1.5" marker-end="url(#arrow)" x1="235.5945446599288" y1="-190.7134804377223" x2="253.48320045175987" y2="-165.34465103127044"></line><line stroke-width="1.5" marker-end="url(#arrow)" x1="-21.90691170089217" y1="280.0014109817643" x2="8.544095965912568" y2="284.62704094887306"></line><line stroke-width="1.5" marker-end="url(#arrow)" x1="-81.61000927044873" y1="-181.86093384420036" x2="-48.06826310375386" y2="-203.2637946445669"></line><line stroke-width="1.5" marker-end="url(#arrow)" x1="91.85654614346569" y1="-201.07132971941687" x2="90.68903932297958" y2="-166.8859095494111"></line><line stroke-width="1.5" marker-end="url(#arrow)" x1="263.4269944431039" y1="152.38553817627042" x2="247.65287578730033" y2="180.08224301784927"></line><line stroke-width="1.5" marker-end="url(#arrow)" x1="-223.8806829738942" y1="85.15410258836147" x2="-194.30514313053447" y2="54.28422326067507"></line><line stroke-width="1.5" marker-end="url(#arrow)" x1="130.91778651139646" y1="160.36281899808807" x2="111.89487662208974" y2="136.1284152202376"></line><line stroke-width="1.5" marker-end="url(#arrow)" x1="154.07936421935182" y1="178.3964224777255" x2="130.91778651139646" y2="160.36281899808807"></line><line stroke-width="1.5" marker-end="url(#arrow)" x1="89.4893223245036" y1="-277.7627428217095" x2="113.10526193377414" y2="-253.22856973424686"></line><line stroke-width="1.5" marker-end="url(#arrow)" x1="172.75726766427198" y1="188.05038401923537" x2="164.13432471698138" y2="216.76584533827562"></line><line stroke-width="1.5" marker-end="url(#arrow)" x1="-122.6765460817213" y1="129.02108111838115" x2="-86.98709936158185" y2="108.61985907469739"></line><line stroke-width="1.5" marker-end="url(#arrow)" x1="145.91551577466632" y1="-206.96261811053802" x2="142.96253461686277" y2="-176.6999334599142"></line><line stroke-width="1.5" marker-end="url(#arrow)" x1="8.544095965912568" y1="284.62704094887306" x2="40.575743042413485" y2="281.4835346748122"></line><line stroke-width="1.5" marker-end="url(#arrow)" x1="72.0223299779051" y1="25.687052412584535" x2="67.04970726871144" y2="70.13995215818721"></line><line stroke-width="1.5" marker-end="url(#arrow)" x1="-171.34413160198258" y1="-185.5353590782418" x2="-157.83532013319362" y2="-150.07237356959814"></line><line stroke-width="1.5" marker-end="url(#arrow)" x1="129.19286934417332" y1="201.23735248180603" x2="106.84312637564929" y2="180.26728826413145"></line><line stroke-width="1.5" marker-end="url(#arrow)" x1="-26.483572724305613" y1="244.94344488957148" x2="-12.183627385758674" y2="213.2894283291893"></line><line stroke-width="1.5" marker-end="url(#arrow)" x1="-121.28476618500015" y1="-114.35941244850675" x2="-155.5026261378023" y2="-99.6845655586071"></line><line stroke-width="1.5" marker-end="url(#arrow)" x1="-20.28088169823641" y1="-226.15258706796962" x2="-48.06826310375386" y2="-203.2637946445669"></line><line stroke-width="1.5" marker-end="url(#arrow)" x1="145.37474675966135" y1="108.7127568943256" x2="113.15599863497188" y2="106.44342400146493"></line><line stroke-width="1.5" marker-end="url(#arrow)" x1="-239.56436187532168" y1="18.549532402843926" x2="-197.10309240843046" y2="19.74724156859337"></line><line stroke-width="1.5" marker-end="url(#arrow)" x1="122.45886985235263" y1="-200.19599980635599" x2="142.96253461686277" y2="-176.6999334599142"></line><line stroke-width="1.5" marker-end="url(#arrow)" x1="100.94702479183081" y1="3.277349560694225" x2="85.98065755474788" y2="39.908481009071096"></line><line stroke-width="1.5" marker-end="url(#arrow)" x1="134.68818201615744" y1="-114.60506784704587" x2="121.7731773784845" y2="-81.75109690183328"></line><line stroke-width="1.5" marker-end="url(#arrow)" x1="-185.94333940753683" y1="234.31429131321195" x2="-158.7927520953051" y2="218.09220430706802"></line><line stroke-width="1.5" marker-end="url(#arrow)" x1="-68.3910971063905" y1="209.25765609146615" x2="-61.13710368686064" y2="174.45346351466793"></line><line stroke-width="1.5" marker-end="url(#arrow)" x1="86.29300483932379" y1="-110.82648474767937" x2="66.17644251674434" y2="-86.39490685943997"></line><line stroke-width="1.5" marker-end="url(#arrow)" x1="-149.26542938087852" y1="249.83308165088366" x2="-129.8521530263259" y2="226.40462786080946"></line><line stroke-width="1.5" marker-end="url(#arrow)" x1="169.51054822235184" y1="-124.49012060019005" x2="156.4121671879481" y2="-93.74525633553692"></line><line stroke-width="1.5" marker-end="url(#arrow)" x1="20.72065509910873" y1="-31.97752306427561" x2="16.726443341956966" y2="-1.4604437582602525"></line><line stroke-width="1.5" marker-end="url(#arrow)" x1="-8.380042963022307" y1="-230.5035860249021" x2="-48.06826310375386" y2="-203.2637946445669"></line><line stroke-width="1.5" marker-end="url(#arrow)" x1="225.29129757744167" y1="40.119071747064126" x2="192.49434350257434" y2="66.84582969398237"></line><line stroke-width="1.5" marker-end="url(#arrow)" x1="-157.83532013319362" y1="-150.07237356959814" x2="-155.5026261378023" y2="-99.6845655586071"></line><line stroke-width="1.5" marker-end="url(#arrow)" x1="-25.261003983056483" y1="-161.74857496149127" x2="-48.06826310375386" y2="-203.2637946445669"></line><line stroke-width="1.5" marker-end="url(#arrow)" x1="-86.55014064897262" y1="-107.76396527284885" x2="-121.28476618500015" y2="-114.35941244850675"></line><line stroke-width="1.5" marker-end="url(#arrow)" x1="262.5397316327987" y1="-107.44838164481631" x2="286.06220935064846" y2="-80.48538792997643"></line><line stroke-width="1.5" marker-end="url(#arrow)" x1="99.41813365116612" y1="-93.64819769996903" x2="84.57366779442172" y2="-56.087291806340446"></line><line stroke-width="1.5" marker-end="url(#arrow)" x1="-281.22004228424083" y1="-33.674099777592076" x2="-250.33042071238947" y2="-17.442979128580564"></line><line stroke-width="1.5" marker-end="url(#arrow)" x1="199.11008732061205" y1="227.2953560764063" x2="174.19928671724304" y2="250.34839808901683"></line><line stroke-width="1.5" marker-end="url(#arrow)" x1="156.4121671879481" y1="-93.74525633553692" x2="137.29723821574967" y2="-62.38438243799915"></line><line stroke-width="1.5" marker-end="url(#arrow)" x1="172.45648902853375" y1="-217.36594674685298" x2="197.8992419366185" y2="-191.6773897404687"></line><line stroke-width="1.5" marker-end="url(#arrow)" x1="90.92397538902915" y1="-232.9420445198779" x2="91.85654614346569" y2="-201.07132971941687"></line><line stroke-width="1.5" marker-end="url(#arrow)" x1="-45.686534645284844" y1="-243.01169719731166" x2="-48.06826310375386" y2="-203.2637946445669"></line><line stroke-width="1.5" marker-end="url(#arrow)" x1="69.7190790613143" y1="224.72208851491473" x2="73.91924565366278" y2="192.4917040464458"></line><line stroke-width="1.5" marker-end="url(#arrow)" x1="-1.5334366593801871" y1="-210.52342739808367" x2="-48.06826310375386" y2="-203.2637946445669"></line><line stroke-width="1.5" marker-end="url(#arrow)" x1="-19.076322427497217" y1="-187.51020638357912" x2="-48.06826310375386" y2="-203.2637946445669"></line><line stroke-width="1.5" marker-end="url(#arrow)" x1="63.544565216934615" y1="-294.8027310139034" x2="89.4893223245036" y2="-277.7627428217095"></line><line stroke-width="1.5" marker-end="url(#arrow)" x1="-97.66657455120048" y1="221.29472220507805" x2="-88.72941840496307" y2="185.24773170293162"></line><line stroke-width="1.5" marker-end="url(#arrow)" x1="59.05485221988269" y1="170.29314771123526" x2="48.32605457864421" y2="142.3189559229233"></line><line stroke-width="1.5" marker-end="url(#arrow)" x1="163.21592081477849" y1="-61.33885827552912" x2="155.1995052384637" y2="-31.24249576760497"></line><line stroke-width="1.5" marker-end="url(#arrow)" x1="-69.1825543503994" y1="-246.50956878885614" x2="-48.06826310375386" y2="-203.2637946445669"></line><line stroke-width="1.5" marker-end="url(#arrow)" x1="-88.72941840496307" y1="185.24773170293162" x2="-83.86851327743798" y2="145.65534000183735"></line><line stroke-width="1.5" marker-end="url(#arrow)" x1="-90.23289109234194" y1="-191.1968765945241" x2="-48.06826310375386" y2="-203.2637946445669"></line><line stroke-width="1.5" marker-end="url(#arrow)" x1="241.78895842446414" y1="92.34230110456036" x2="213.05853958828942" y2="103.63364476143288"></line><line stroke-width="1.5" marker-end="url(#arrow)" x1="-58.55061737945278" y1="-248.39811139947886" x2="-48.06826310375386" y2="-203.2637946445669"></line><line stroke-width="1.5" marker-end="url(#arrow)" x1="-124.02187192251479" y1="40.82636521031623" x2="-163.74900922004795" y2="32.14115024434382"></line><line stroke-width="1.5" marker-end="url(#arrow)" x1="-148.78493391922598" y1="273.70230062627735" x2="-118.57064217722534" y2="281.2466525657481"></line><line stroke-width="1.5" marker-end="url(#arrow)" x1="-142.86337820103645" y1="-165.04166497984917" x2="-141.5185600572627" y2="-131.2395939727633"></line><line stroke-width="1.5" marker-end="url(#arrow)" x1="50.12650327498291" y1="-25.76298717050731" x2="49.796281795764095" y2="6.3042784397112985"></line><line stroke-width="1.5" marker-end="url(#arrow)" x1="-138.1350222881883" y1="-59.73068294254614" x2="-155.5026261378023" y2="-99.6845655586071"></line><line stroke-width="1.5" marker-end="url(#arrow)" x1="-133.25627093828257" y1="190.89452940245513" x2="-106.1832284726371" y2="158.93625697677595"></line><line stroke-width="1.5" marker-end="url(#arrow)" x1="-172.51664608835486" y1="195.26228093333253" x2="-142.96000172782456" y2="170.0834424159828"></line><line stroke-width="1.5" marker-end="url(#arrow)" x1="111.0664908569083" y1="265.7555516485427" x2="89.36595187455907" y2="237.97977763666816"></line><line stroke-width="1.5" marker-end="url(#arrow)" x1="-203.2745152637149" y1="100.14677236503971" x2="-180.06793804365108" y2="64.85946808446863"></line><line stroke-width="1.5" marker-end="url(#arrow)" x1="-167.81592875337478" y1="-63.307334054971314" x2="-155.5026261378023" y2="-99.6845655586071"></line><line stroke-width="1.5" marker-end="url(#arrow)" x1="101.46181727796441" y1="-133.461385136114" x2="99.41813365116612" y2="-93.64819769996903"></line><line stroke-width="1.5" marker-end="url(#arrow)" x1="-211.55376322490002" y1="-111.11147347283723" x2="-155.5026261378023" y2="-99.6845655586071"></line><line stroke-width="1.5" marker-end="url(#arrow)" x1="223.6161994440653" y1="172.58591842693087" x2="225.03090917110245" y2="204.2730199775651"></line><line stroke-width="1.5" marker-end="url(#arrow)" x1="141.69490366431162" y1="-235.66900088307028" x2="172.45648902853375" y2="-217.36594674685298"></line><line stroke-width="1.5" marker-end="url(#arrow)" x1="-91.91279229216107" y1="-219.56564239722027" x2="-48.06826310375386" y2="-203.2637946445669"></line><line stroke-width="1.5" marker-end="url(#arrow)" x1="90.23271580393532" y1="154.93869975364896" x2="78.16671667298824" y2="127.96471034526142"></line><line stroke-width="1.5" marker-end="url(#arrow)" x1="-220.01618011166963" y1="-63.09235131791595" x2="-186.90592132044623" y2="-78.69320390620416"></line><line stroke-width="1.5" marker-end="url(#arrow)" x1="-131.21217733422606" y1="11.561483772862692" x2="-163.74900922004795" y2="32.14115024434382"></line><line stroke-width="1.5" marker-end="url(#arrow)" x1="103.72620160747832" y1="-47.8949914498726" x2="81.80026171448698" y2="-18.015503269714507"></line><line stroke-width="1.5" marker-end="url(#arrow)" x1="-37.828432969237596" y1="163.96971232075478" x2="-60.70519777902329" y2="138.0719094852978"></line><line stroke-width="1.5" marker-end="url(#arrow)" x1="207.63678229066565" y1="-33.19142819888551" x2="210.9164586816511" y2="-1.1262681443794857"></line><line stroke-width="1.5" marker-end="url(#arrow)" x1="-186.90592132044623" y1="-78.69320390620416" x2="-155.5026261378023" y2="-99.6845655586071"></line><line stroke-width="1.5" marker-end="url(#arrow)" x1="-60.70519777902329" y1="138.0719094852978" x2="-86.98709936158185" y2="108.61985907469739"></line><line stroke-width="1.5" marker-end="url(#arrow)" x1="138.6348027052111" y1="-269.53098174311975" x2="166.19102350112917" y2="-254.70703817804676"></line><line stroke-width="1.5" marker-end="url(#arrow)" x1="81.80026171448698" y1="-18.015503269714507" x2="72.0223299779051" y2="25.687052412584535"></line><line stroke-width="1.5" marker-end="url(#arrow)" x1="175.6246386428319" y1="101.72200771938671" x2="145.37474675966135" y2="108.7127568943256"></line><line stroke-width="1.5" marker-end="url(#arrow)" x1="293.5041783570982" y1="-45.87277312747552" x2="281.27929602391987" y2="-10.261665001763811"></line><line stroke-width="1.5" marker-end="url(#arrow)" x1="210.9164586816511" y1="-1.1262681443794857" x2="198.04709646181578" y2="28.21560930555036"></line><line stroke-width="1.5" marker-end="url(#arrow)" x1="-15.671407354198049" y1="-238.93443544299294" x2="-48.06826310375386" y2="-203.2637946445669"></line><line stroke-width="1.5" marker-end="url(#arrow)" x1="230.90339242282948" y1="-100.27751125280051" x2="253.2608902028154" y2="-79.41186118474418"></line><line stroke-width="1.5" marker-end="url(#arrow)" x1="140.7256385767475" y1="-145.86126815321333" x2="134.68818201615744" y2="-114.60506784704587"></line><line stroke-width="1.5" marker-end="url(#arrow)" x1="-86.12523475000589" y1="-230.80280112656942" x2="-48.06826310375386" y2="-203.2637946445669"></line><line stroke-width="1.5" marker-end="url(#arrow)" x1="-107.12903204554894" y1="-48.71424690813093" x2="-133.03337923877447" y2="-73.63083573019705"></line><line stroke-width="1.5" marker-end="url(#arrow)" x1="281.27929602391987" y1="-10.261665001763811" x2="257.55802115023585" y2="19.946462854086537"></line><line stroke-width="1.5" marker-end="url(#arrow)" x1="-234.52074727388717" y1="-166.56377801106495" x2="-206.19650820481277" y2="-142.84790226282252"></line><line stroke-width="1.5" marker-end="url(#arrow)" x1="198.04709646181578" y1="28.21560930555036" x2="173.55635377180045" y2="50.189672574966714"></line><line stroke-width="1.5" marker-end="url(#arrow)" x1="-249.39813899480757" y1="-83.46392602785765" x2="-210.34078702449338" y2="-84.23871348369117"></line><line stroke-width="1.5" marker-end="url(#arrow)" x1="299.70648251304885" y1="63.25462277530465" x2="291.7718848874649" y2="93.24738991317173"></line><line stroke-width="1.5" marker-end="url(#arrow)" x1="-201.31473961806503" y1="209.96649492433826" x2="-172.51664608835486" y2="195.26228093333253"></line><line stroke-width="1.5" marker-end="url(#arrow)" x1="239.2152533162376" y1="-134.82404755028585" x2="262.5397316327987" y2="-107.44838164481631"></line><line stroke-width="1.5" marker-end="url(#arrow)" x1="153.20108982794054" y1="77.56707975668208" x2="110.30236007511287" y2="75.87995127384387"></line><line stroke-width="1.5" marker-end="url(#arrow)" x1="277.6604327049801" y1="40.05095894940864" x2="249.33815329470178" y2="55.490068824308885"></line><line stroke-width="1.5" marker-end="url(#arrow)" x1="-2.7774994958398906" y1="-221.0397159298313" x2="-48.06826310375386" y2="-203.2637946445669"></line><line stroke-width="1.5" marker-end="url(#arrow)" x1="34.4443770513062" y1="92.19979675719277" x2="7.38606100868982" y2="107.3979383766646"></line><line stroke-width="1.5" marker-end="url(#arrow)" x1="-210.34078702449338" y1="-84.23871348369117" x2="-155.5026261378023" y2="-99.6845655586071"></line><line stroke-width="1.5" marker-end="url(#arrow)" x1="-112.6552646960668" y1="-86.0604777297756" x2="-155.5026261378023" y2="-99.6845655586071"></line><line stroke-width="1.5" marker-end="url(#arrow)" x1="-14.958394205153684" y1="-20.593528840927853" x2="-12.588367191724245" y2="11.27438383724849"></line><line stroke-width="1.5" marker-end="url(#arrow)" x1="-6.244575346804629" y1="-181.92098282969076" x2="-48.06826310375386" y2="-203.2637946445669"></line><line stroke-width="1.5" marker-end="url(#arrow)" x1="-13.958877008671049" y1="-206.9944530732467" x2="-48.06826310375386" y2="-203.2637946445669"></line><line stroke-width="1.5" marker-end="url(#arrow)" x1="291.7718848874649" y1="93.24738991317173" x2="271.47750009859794" y2="72.7163592594338"></line><line stroke-width="1.5" marker-end="url(#arrow)" x1="141.06912152431306" y1="-2.6821754121659724" x2="121.53124909411976" y2="23.851822076728837"></line><line stroke-width="1.5" marker-end="url(#arrow)" x1="-34.541155360136294" y1="-249.13531860302152" x2="-48.06826310375386" y2="-203.2637946445669"></line><line stroke-width="1.5" marker-end="url(#arrow)" x1="-84.15247834219396" y1="-206.15502842549355" x2="-48.06826310375386" y2="-203.2637946445669"></line><line stroke-width="1.5" marker-end="url(#arrow)" x1="56.43692789542334" y1="300.1592813238536" x2="83.59127145214067" y2="275.2632992656045"></line><line stroke-width="1.5" marker-end="url(#arrow)" x1="201.27853162016007" y1="131.8312913413161" x2="195.02093650827393" y2="162.8665141380748"></line><line stroke-width="1.5" marker-end="url(#arrow)" x1="37.159224584256336" y1="58.589031322944585" x2="67.04970726871144" y2="70.13995215818721"></line><line stroke-width="1.5" marker-end="url(#arrow)" x1="-253.33943768795137" y1="66.1757266590831" x2="-214.42359418762965" y2="55.888573889969074"></line><line stroke-width="1.5" marker-end="url(#arrow)" x1="215.0514012203645" y1="-214.43910208942518" x2="235.5945446599288" y2="-190.7134804377223"></line><line stroke-width="1.5" marker-end="url(#arrow)" x1="-205.37664545782326" y1="-29.69631334761343" x2="-188.38463828576715" y2="-59.32346015217504"></line><line stroke-width="1.5" marker-end="url(#arrow)" x1="-87.47674529727958" y1="289.0606747313646" x2="-55.81429275003402" y2="298.09722347218326"></line><line stroke-width="1.5" marker-end="url(#arrow)" x1="-77.5085278884803" y1="-70.26753735367643" x2="-112.6552646960668" y2="-86.0604777297756"></line><line stroke-width="1.5" marker-end="url(#arrow)" x1="-160.28682363825325" y1="155.61030828862334" x2="-122.6765460817213" y2="129.02108111838115"></line><line stroke-width="1.5" marker-end="url(#arrow)" x1="1.3673034171923033" y1="254.76769650165923" x2="14.717448844521204" y2="227.11281356717424"></line><line stroke-width="1.5" marker-end="url(#arrow)" x1="-81.65901100524442" y1="-218.64616162530936" x2="-48.06826310375386" y2="-203.2637946445669"></line><line stroke-width="1.5" marker-end="url(#arrow)" x1="-248.12864514204165" y1="110.22670228680633" x2="-223.8806829738942" y2="85.15410258836147"></line><line stroke-width="1.5" marker-end="url(#arrow)" x1="113.02543162724976" y1="-285.07558835869344" x2="138.6348027052111" y2="-269.53098174311975"></line><line stroke-width="1.5" marker-end="url(#arrow)" x1="192.3242227610036" y1="-85.16335789539383" x2="186.07696780051398" y2="-51.30443725003158"></line><line stroke-width="1.5" marker-end="url(#arrow)" x1="258.79342813668944" y1="-19.20772716537873" x2="238.24769542599927" y2="9.069818267290957"></line><line stroke-width="1.5" marker-end="url(#arrow)" x1="-55.81429275003402" y1="298.09722347218326" x2="-21.030910527163314" y2="305.8043707482321"></line><line stroke-width="1.5" marker-end="url(#arrow)" x1="-118.73066448627652" y1="-72.68562082425213" x2="-155.5026261378023" y2="-99.6845655586071"></line><line stroke-width="1.5" marker-end="url(#arrow)" x1="197.67099797383514" y1="195.21946885006577" x2="199.11008732061205" y2="227.2953560764063"></line><line stroke-width="1.5" marker-end="url(#arrow)" x1="14.717448844521204" y1="227.11281356717424" x2="19.00872594340975" y2="195.417863106781"></line><line stroke-width="1.5" marker-end="url(#arrow)" x1="110.30236007511287" y1="75.87995127384387" x2="67.04970726871144" y2="70.13995215818721"></line><line stroke-width="1.5" marker-end="url(#arrow)" x1="-191.35397490439445" y1="-159.9699935458896" x2="-170.8310217860458" y2="-129.917714129979"></line><line stroke-width="1.5" marker-end="url(#arrow)" x1="-50.999129457687715" y1="264.8945706551358" x2="-26.483572724305613" y2="244.94344488957148"></line><line stroke-width="1.5" marker-end="url(#arrow)" x1="-117.51401408098666" y1="-30.171688505885754" x2="-138.1350222881883" y2="-59.73068294254614"></line><line stroke-width="1.5" marker-end="url(#arrow)" x1="-273.99274987326385" y1="15.800162258583567" x2="-239.56436187532168" y2="18.549532402843926"></line><line stroke-width="1.5" marker-end="url(#arrow)" x1="10.534019968397816" y1="69.6696300936222" x2="34.4443770513062" y2="92.19979675719277"></line><line stroke-width="1.5" marker-end="url(#arrow)" x1="222.82433817822692" y1="72.26577556867353" x2="192.49434350257434" y2="66.84582969398237"></line><line stroke-width="1.5" marker-end="url(#arrow)" x1="89.36595187455907" y1="237.97977763666816" x2="73.91924565366278" y2="192.4917040464458"></line><line stroke-width="1.5" marker-end="url(#arrow)" x1="-144.2903856231957" y1="62.71078546857225" x2="-163.74900922004795" y2="32.14115024434382"></line><line stroke-width="1.5" marker-end="url(#arrow)" x1="-74.2599217120552" y1="240.76547023422106" x2="-68.3910971063905" y2="209.25765609146615"></line><line stroke-width="1.5" marker-end="url(#arrow)" x1="-76.00608816848322" y1="-170.85131514096176" x2="-48.06826310375386" y2="-203.2637946445669"></line><line stroke-width="1.5" marker-end="url(#arrow)" x1="-205.82455621774548" y1="125.94984660272273" x2="-182.95517231299016" y2="80.19820119757075"></line><line stroke-width="1.5" marker-end="url(#arrow)" x1="-182.95517231299016" y1="80.19820119757075" x2="-163.74900922004795" y2="32.14115024434382"></line><line stroke-width="1.5" marker-end="url(#arrow)" x1="31.407975857805038" y1="258.5532931770347" x2="43.54649145026545" y2="230.8635988868479"></line><line stroke-width="1.5" marker-end="url(#arrow)" x1="-13.96378455598801" y1="-217.31806867157013" x2="-48.06826310375386" y2="-203.2637946445669"></line><line stroke-width="1.5" marker-end="url(#arrow)" x1="1.8657830761489216" y1="141.84480257373949" x2="7.38606100868982" y2="107.3979383766646"></line><line stroke-width="1.5" marker-end="url(#arrow)" x1="269.9265351094602" y1="-139.01030349310253" x2="287.0556353072666" y2="-111.85828068483757"></line><line stroke-width="1.5" marker-end="url(#arrow)" x1="9.87872666953378" y1="-60.20621162904397" x2="20.72065509910873" y2="-31.97752306427561"></line><line stroke-width="1.5" marker-end="url(#arrow)" x1="7.38606100868982" y1="107.3979383766646" x2="67.04970726871144" y2="70.13995215818721"></line><line stroke-width="1.5" marker-end="url(#arrow)" x1="-67.05344366077787" y1="-235.4833134213965" x2="-48.06826310375386" y2="-203.2637946445669"></line><line stroke-width="1.5" marker-end="url(#arrow)" x1="-181.46750769401987" y1="141.45897686442322" x2="-168.98528039677666" y2="111.38823774925169"></line><line stroke-width="1.5" marker-end="url(#arrow)" x1="25.4280628503507" y1="163.71490547378554" x2="28.51126472458525" y2="130.34484316924355"></line><line stroke-width="1.5" marker-end="url(#arrow)" x1="-283.53992560329095" y1="81.28415267127752" x2="-253.33943768795137" y2="66.1757266590831"></line><line stroke-width="1.5" marker-end="url(#arrow)" x1="-44.73270640679232" y1="-165.57315605327912" x2="-48.06826310375386" y2="-203.2637946445669"></line><line stroke-width="1.5" marker-end="url(#arrow)" x1="150.1983657328619" y1="242.70922443368806" x2="121.48877047645539" y2="236.3754078876567"></line><line stroke-width="1.5" marker-end="url(#arrow)" x1="-245.13220109163015" y1="-68.2493354392153" x2="-210.34078702449338" y2="-84.23871348369117"></line><line stroke-width="1.5" marker-end="url(#arrow)" x1="83.59127145214067" y1="275.2632992656045" x2="89.36595187455907" y2="237.97977763666816"></line><line stroke-width="1.5" marker-end="url(#arrow)" x1="-168.98528039677666" y1="111.38823774925169" x2="-160.30160917715762" y2="72.26657128216272"></line><line stroke-width="1.5" marker-end="url(#arrow)" x1="-145.83062503209706" y1="-24.48025930834757" x2="-153.2584587023002" y2="-58.764429342595264"></line><line stroke-width="1.5" marker-end="url(#arrow)" x1="-5.471347871350621" y1="177.62185282412062" x2="1.8657830761489216" y2="141.84480257373949"></line><line stroke-width="1.5" marker-end="url(#arrow)" x1="-153.2584587023002" y1="-58.764429342595264" x2="-155.5026261378023" y2="-99.6845655586071"></line><line stroke-width="1.5" marker-end="url(#arrow)" x1="-188.38463828576715" y1="-59.32346015217504" x2="-155.5026261378023" y2="-99.6845655586071"></line><line stroke-width="1.5" marker-end="url(#arrow)" x1="-113.0915650233633" y1="-99.90977414401823" x2="-155.5026261378023" y2="-99.6845655586071"></line><line stroke-width="1.5" marker-end="url(#arrow)" x1="121.48877047645539" y1="236.3754078876567" x2="100.61513327458309" y2="211.56138828586592"></line><line stroke-width="1.5" marker-end="url(#arrow)" x1="46.74461172635844" y1="200.06195878724483" x2="59.05485221988269" y2="170.29314771123526"></line><line stroke-width="1.5" marker-end="url(#arrow)" x1="-221.03838065267263" y1="156.21880781719278" x2="-205.82455621774548" y2="125.94984660272273"></line><line stroke-width="1.5" marker-end="url(#arrow)" x1="-288.6332359033395" y1="54.24410315098664" x2="-257.891794886308" y2="41.07838054302226"></line><line stroke-width="1.5" marker-end="url(#arrow)" x1="-24.408186134172226" y1="-245.0598562460015" x2="-48.06826310375386" y2="-203.2637946445669"></line><line stroke-width="1.5" marker-end="url(#arrow)" x1="202.06306611404185" y1="-115.05510413523969" x2="192.3242227610036" y2="-85.16335789539383"></line><line stroke-width="1.5" marker-end="url(#arrow)" x1="-192.80920480080206" y1="-98.02820883253042" x2="-155.5026261378023" y2="-99.6845655586071"></line><line stroke-width="1.5" marker-end="url(#arrow)" x1="46.84572145194557" y1="-109.95886727608833" x2="66.17644251674434" y2="-86.39490685943997"></line><line stroke-width="1.5" marker-end="url(#arrow)" x1="-230.08915114255066" y1="-96.93509893142715" x2="-192.80920480080206" y2="-98.02820883253042"></line><line stroke-width="1.5" marker-end="url(#arrow)" x1="-76.31703085877238" y1="-89.12621424390598" x2="-113.0915650233633" y2="-99.90977414401823"></line><line stroke-width="1.5" marker-end="url(#arrow)" x1="119.56335599938207" y1="-28.922802767977878" x2="100.94702479183081" y2="3.277349560694225"></line><line stroke-width="1.5" marker-end="url(#arrow)" x1="300.01645010195995" y1="18.771123495491818" x2="277.6604327049801" y2="40.05095894940864"></line><line stroke-width="1.5" marker-end="url(#arrow)" x1="0.10633233056807569" y1="-200.61803473577902" x2="-48.06826310375386" y2="-203.2637946445669"></line><line stroke-width="1.5" marker-end="url(#arrow)" x1="249.33815329470178" y1="55.490068824308885" x2="222.82433817822692" y2="72.26577556867353"></line><line stroke-width="1.5" marker-end="url(#arrow)" x1="174.9844368867682" y1="-155.4177246590928" x2="169.51054822235184" y2="-124.49012060019005"></line><line stroke-width="1.5" marker-end="url(#arrow)" x1="-10.792254171103085" y1="-196.30762728685312" x2="-48.06826310375386" y2="-203.2637946445669"></line><line stroke-width="1.5" marker-end="url(#arrow)" x1="-28.176510392957347" y1="77.18592636296621" x2="-53.06468210499688" y2="101.01771546019216"></line><line stroke-width="1.5" marker-end="url(#arrow)" x1="-130.00487811920794" y1="54.33274610923279" x2="-163.74900922004795" y2="32.14115024434382"></line><line stroke-width="1.5" marker-end="url(#arrow)" x1="-54.913450258419545" y1="-170.3284308237888" x2="-48.06826310375386" y2="-203.2637946445669"></line><line stroke-width="1.5" marker-end="url(#arrow)" x1="-228.7835782924565" y1="122.12196181291807" x2="-203.2745152637149" y2="100.14677236503971"></line><line stroke-width="1.5" marker-end="url(#arrow)" x1="-189.22667466543152" y1="-186.53981631399316" x2="-178.2783917500111" y2="-148.1133096827823"></line><line stroke-width="1.5" marker-end="url(#arrow)" x1="-250.59337797543256" y1="-109.58761722512256" x2="-211.55376322490002" y2="-111.11147347283723"></line><line stroke-width="1.5" marker-end="url(#arrow)" x1="-73.71359958494625" y1="-226.3392087800837" x2="-48.06826310375386" y2="-203.2637946445669"></line><line stroke-width="1.5" marker-end="url(#arrow)" x1="247.65287578730033" y1="180.08224301784927" x2="225.03090917110245" y2="204.2730199775651"></line><line stroke-width="1.5" marker-end="url(#arrow)" x1="180.76210608852986" y1="-16.208735249028386" x2="165.8116471573014" y2="14.648564370667259"></line><line stroke-width="1.5" marker-end="url(#arrow)" x1="40.575743042413485" y1="281.4835346748122" x2="62.61552540123517" y2="257.52242673067235"></line><line stroke-width="1.5" marker-end="url(#arrow)" x1="-289.46772015643137" y1="-8.43366356373594" x2="-255.7027380295006" y2="0.12909078170561575"></line><line stroke-width="1.5" marker-end="url(#arrow)" x1="225.03090917110245" y1="204.2730199775651" x2="199.11008732061205" y2="227.2953560764063"></line><line stroke-width="1.5" marker-end="url(#arrow)" x1="82.04234605916453" y1="97.37260997490917" x2="67.04970726871144" y2="70.13995215818721"></line><line stroke-width="1.5" marker-end="url(#arrow)" x1="165.8116471573014" y1="14.648564370667259" x2="138.10246402884562" y2="36.74190628599838"></line><line stroke-width="1.5" marker-end="url(#arrow)" x1="-222.98608885324052" y1="-130.64429075024603" x2="-188.30426347718304" y2="-117.58385172599105"></line><line stroke-width="1.5" marker-end="url(#arrow)" x1="73.19210613442304" y1="-258.4270261372279" x2="90.92397538902915" y2="-232.9420445198779"></line><line stroke-width="1.5" marker-end="url(#arrow)" x1="62.61552540123517" y1="257.52242673067235" x2="69.7190790613143" y2="224.72208851491473"></line><line stroke-width="1.5" marker-end="url(#arrow)" x1="-197.10309240843046" y1="19.74724156859337" x2="-163.74900922004795" y2="32.14115024434382"></line><line stroke-width="1.5" marker-end="url(#arrow)" x1="-291.2363484258947" y1="34.04391136329692" x2="-257.891794886308" y2="41.07838054302226"></line><line stroke-width="1.5" marker-end="url(#arrow)" x1="78.16671667298824" y1="127.96471034526142" x2="48.32605457864421" y2="142.3189559229233"></line><line stroke-width="1.5" marker-end="url(#arrow)" x1="-247.0640185039886" y1="84.13814801582369" x2="-214.42359418762965" y2="55.888573889969074"></line><line stroke-width="1.5" marker-end="url(#arrow)" x1="66.17644251674434" y1="-86.39490685943997" x2="52.088878470780195" y2="-57.561368658525154"></line><line stroke-width="1.5" marker-end="url(#arrow)" x1="-129.8521530263259" y1="226.40462786080946" x2="-113.64504762403128" y2="196.03316400232399"></line><line stroke-width="1.5" marker-end="url(#arrow)" x1="-11.975538929874833" y1="-175.3379266418517" x2="-48.06826310375386" y2="-203.2637946445669"></line><line stroke-width="1.5" marker-end="url(#arrow)" x1="-257.891794886308" y1="41.07838054302226" x2="-210.11971743709017" y2="34.96625070822373"></line><line stroke-width="1.5" marker-end="url(#arrow)" x1="113.32912562735414" y1="-173.1123215735069" x2="142.96253461686277" y2="-176.6999334599142"></line><line stroke-width="1.5" marker-end="url(#arrow)" x1="-163.74900922004795" y1="32.14115024434382" x2="-86.98709936158185" y2="108.61985907469739"></line><line stroke-width="1.5" marker-end="url(#arrow)" x1="52.088878470780195" y1="-57.561368658525154" x2="50.12650327498291" y2="-25.76298717050731"></line><line stroke-width="1.5" marker-end="url(#arrow)" x1="-113.64504762403128" y1="196.03316400232399" x2="-106.1832284726371" y2="158.93625697677595"></line><line stroke-width="1.5" marker-end="url(#arrow)" x1="-250.33042071238947" y1="-17.442979128580564" x2="-213.38647197529735" y2="7.48292971063315"></line><line stroke-width="1.5" marker-end="url(#arrow)" x1="137.29723821574967" y1="-62.38438243799915" x2="119.56335599938207" y2="-28.922802767977878"></line><line stroke-width="1.5" marker-end="url(#arrow)" x1="307.9282445584376" y1="-10.421077241495961" x2="300.01645010195995" y2="18.771123495491818"></line><line stroke-width="1.5" marker-end="url(#arrow)" x1="142.96253461686277" y1="-176.6999334599142" x2="140.7256385767475" y2="-145.86126815321333"></line><line stroke-width="1.5" marker-end="url(#arrow)" x1="21.248156830238475" y1="29.692389711821242" x2="37.159224584256336" y2="58.589031322944585"></line><line stroke-width="1.5" marker-end="url(#arrow)" x1="-86.98709936158185" y1="108.61985907469739" x2="7.38606100868982" y2="107.3979383766646"></line><line stroke-width="1.5" marker-end="url(#arrow)" x1="67.93177829684771" y1="-118.50492643716588" x2="66.17644251674434" y2="-86.39490685943997"></line><line stroke-width="1.5" marker-end="url(#arrow)" x1="73.91924565366278" y1="192.4917040464458" x2="48.32605457864421" y2="142.3189559229233"></line><line stroke-width="1.5" marker-end="url(#arrow)" x1="-223.4014428611286" y1="-176.2478122769318" x2="-206.19650820481277" y2="-142.84790226282252"></line><line stroke-width="1.5" marker-end="url(#arrow)" x1="172.90717175862352" y1="-185.35715137472593" x2="174.9844368867682" y2="-155.4177246590928"></line><line stroke-width="1.5" marker-end="url(#arrow)" x1="143.9083784831473" y1="268.49591504535425" x2="111.0664908569083" y2="265.7555516485427"></line><line stroke-width="1.5" marker-end="url(#arrow)" x1="28.78540349173537" y1="-83.05501540683221" x2="9.87872666953378" y2="-60.20621162904397"></line><line stroke-width="1.5" marker-end="url(#arrow)" x1="-47.96549567999259" y1="17.38681351482406" x2="-80.55198939793581" y2="21.898655595089117"></line><line stroke-width="1.5" marker-end="url(#arrow)" x1="220.31951215829062" y1="-164.99978240799675" x2="239.2152533162376" y2="-134.82404755028585"></line><line stroke-width="1.5" marker-end="url(#arrow)" x1="90.68903932297958" y1="-166.8859095494111" x2="101.46181727796441" y2="-133.461385136114"></line><line stroke-width="1.5" marker-end="url(#arrow)" x1="-55.514156717521985" y1="-236.77039090207901" x2="-48.06826310375386" y2="-203.2637946445669"></line><line stroke-width="1.5" marker-end="url(#arrow)" x1="84.57366779442172" y1="-56.087291806340446" x2="81.80026171448698" y2="-18.015503269714507"></line><line stroke-width="1.5" marker-end="url(#arrow)" x1="155.1995052384637" y1="-31.24249576760497" x2="141.06912152431306" y2="-2.6821754121659724"></line><line stroke-width="1.5" marker-end="url(#arrow)" x1="-80.55198939793581" y1="21.898655595089117" x2="-122.5482458890749" y2="25.412580191133713"></line><line stroke-width="1.5" marker-end="url(#arrow)" x1="113.10526193377414" y1="-253.22856973424686" x2="141.69490366431162" y2="-235.66900088307028"></line><line stroke-width="1.5" marker-end="url(#arrow)" x1="-206.19650820481277" y1="-142.84790226282252" x2="-155.5026261378023" y2="-99.6845655586071"></line><line stroke-width="1.5" marker-end="url(#arrow)" x1="49.796281795764095" y1="6.3042784397112985" x2="53.18481938681492" y2="40.160791593886984"></line><line stroke-width="1.5" marker-end="url(#arrow)" x1="-201.10671739913857" y1="-179.14895572697844" x2="-178.2783917500111" y2="-148.1133096827823"></line><line stroke-width="1.5" marker-end="url(#arrow)" x1="-110.56984567914937" y1="140.07211767291093" x2="-86.98709936158185" y2="108.61985907469739"></line><line stroke-width="1.5" marker-end="url(#arrow)" x1="213.05853958828942" y1="103.63364476143288" x2="201.27853162016007" y2="131.8312913413161"></line><line stroke-width="1.5" marker-end="url(#arrow)" x1="-46.29634458965022" y1="227.68510897022938" x2="-35.97152417952342" y2="197.89176096765922"></line><line stroke-width="1.5" marker-end="url(#arrow)" x1="-220.05122359173282" y1="-42.227991131859234" x2="-188.38463828576715" y2="-59.32346015217504"></line><line stroke-width="1.5" marker-end="url(#arrow)" x1="106.84312637564929" y1="180.26728826413145" x2="90.23271580393532" y2="154.93869975364896"></line><line stroke-width="1.5" marker-end="url(#arrow)" x1="-118.57064217722534" y1="281.2466525657481" x2="-87.47674529727958" y2="289.0606747313646"></line><line stroke-width="1.5" marker-end="url(#arrow)" x1="-16.779437058397697" y1="-167.52337109413813" x2="-48.06826310375386" y2="-203.2637946445669"></line><line stroke-width="1.5" marker-end="url(#arrow)" x1="213.79584270195062" y1="-63.73554433895927" x2="207.63678229066565" y2="-33.19142819888551"></line><line stroke-width="1.5" marker-end="url(#arrow)" x1="113.15599863497188" y1="106.44342400146493" x2="82.04234605916453" y2="97.37260997490917"></line><line stroke-width="1.5" marker-end="url(#arrow)" x1="28.51126472458525" y1="130.34484316924355" x2="7.38606100868982" y2="107.3979383766646"></line><line stroke-width="1.5" marker-end="url(#arrow)" x1="-35.97152417952342" y1="197.89176096765922" x2="-37.828432969237596" y2="163.96971232075478"></line><line stroke-width="1.5" marker-end="url(#arrow)" x1="-78.81982238969503" y1="-239.04677726523502" x2="-48.06826310375386" y2="-203.2637946445669"></line><line stroke-width="1.5" marker-end="url(#arrow)" x1="-47.58567010089137" y1="-252.4611165133671" x2="-48.06826310375386" y2="-203.2637946445669"></line><line stroke-width="1.5" marker-end="url(#arrow)" x1="111.89487662208974" y1="136.1284152202376" x2="78.16671667298824" y2="127.96471034526142"></line><line stroke-width="1.5" marker-end="url(#arrow)" x1="267.65503309194986" y1="-51.20729352646457" x2="258.79342813668944" y2="-19.20772716537873"></line><line stroke-width="1.5" marker-end="url(#arrow)" x1="121.7731773784845" y1="-81.75109690183328" x2="103.72620160747832" y2="-47.8949914498726"></line><line stroke-width="1.5" marker-end="url(#arrow)" x1="-158.7927520953051" y1="218.09220430706802" x2="-133.25627093828257" y2="190.89452940245513"></line><line stroke-width="1.5" marker-end="url(#arrow)" x1="-103.74271012979136" y1="252.2651415836719" x2="-97.66657455120048" y2="221.29472220507805"></line><line stroke-width="1.5" marker-end="url(#arrow)" x1="-273.22689969153464" y1="106.84599447967975" x2="-247.0640185039886" y2="84.13814801582369"></line><line stroke-width="1.5" marker-end="url(#arrow)" x1="-210.11971743709017" y1="34.96625070822373" x2="-163.74900922004795" y2="32.14115024434382"></line><line stroke-width="1.5" marker-end="url(#arrow)" x1="-86.70477000359229" y1="-51.67045951266795" x2="-118.73066448627652" y2="-72.68562082425213"></line><line stroke-width="1.5" marker-end="url(#arrow)" x1="247.98055706552745" y1="117.64856374286052" x2="231.34272184187637" y2="142.93963809025934"></line><line stroke-width="1.5" marker-end="url(#arrow)" x1="141.40366612644002" y1="62.30969001412443" x2="110.30236007511287" y2="75.87995127384387"></line><line stroke-width="1.5" marker-end="url(#arrow)" x1="121.53124909411976" y1="23.851822076728837" x2="104.22215259500895" y2="53.43871090413222"></line><line stroke-width="1.5" marker-end="url(#arrow)" x1="-142.96000172782456" y1="170.0834424159828" x2="-110.56984567914937" y2="140.07211767291093"></line><line stroke-width="1.5" marker-end="url(#arrow)" x1="144.14832066404807" y1="137.3086483275929" x2="111.89487662208974" y2="136.1284152202376"></line><line stroke-width="1.5" marker-end="url(#arrow)" x1="286.06220935064846" y1="-80.48538792997643" x2="293.5041783570982" y2="-45.87277312747552"></line><line stroke-width="1.5" marker-end="url(#arrow)" x1="100.61513327458309" y1="211.56138828586592" x2="73.91924565366278" y2="192.4917040464458"></line><line stroke-width="1.5" marker-end="url(#arrow)" x1="232.89324527609472" y1="-24.139005153910034" x2="210.9164586816511" y2="-1.1262681443794857"></line><line stroke-width="1.5" marker-end="url(#arrow)" x1="231.34272184187637" y1="142.93963809025934" x2="223.6161994440653" y2="172.58591842693087"></line><line stroke-width="1.5" marker-end="url(#arrow)" x1="-6.569341334053996" y1="42.49554281948976" x2="10.534019968397816" y2="69.6696300936222"></line><line stroke-width="1.5" marker-end="url(#arrow)" x1="-194.30514313053447" y1="54.28422326067507" x2="-163.74900922004795" y2="32.14115024434382"></line><line stroke-width="1.5" marker-end="url(#arrow)" x1="-50.59251979231137" y1="46.63431409486729" x2="-83.36221094263938" y2="46.71050492384321"></line><line stroke-width="1.5" marker-end="url(#arrow)" x1="197.8992419366185" y1="-191.6773897404687" x2="220.31951215829062" y2="-164.99978240799675"></line><line stroke-width="1.5" marker-end="url(#arrow)" x1="-213.38647197529735" y1="7.48292971063315" x2="-163.74900922004795" y2="32.14115024434382"></line><line stroke-width="1.5" marker-end="url(#arrow)" x1="-235.5900186361082" y1="144.84567409637788" x2="-205.82455621774548" y2="125.94984660272273"></line><line stroke-width="1.5" marker-end="url(#arrow)" x1="-83.36221094263938" y1="46.71050492384321" x2="-124.02187192251479" y2="40.82636521031623"></line><line stroke-width="1.5" marker-end="url(#arrow)" x1="-34.18618238456236" y1="-169.38742002336053" x2="-48.06826310375386" y2="-203.2637946445669"></line><line stroke-width="1.5" marker-end="url(#arrow)" x1="-21.030910527163314" y1="305.8043707482321" x2="17.649498938898056" y2="306.70205736395695"></line><line stroke-width="1.5" marker-end="url(#arrow)" x1="-133.03337923877447" y1="-73.63083573019705" x2="-155.5026261378023" y2="-99.6845655586071"></line><line stroke-width="1.5" marker-end="url(#arrow)" x1="253.48320045175987" y1="-165.34465103127044" x2="269.9265351094602" y2="-139.01030349310253"></line><line stroke-width="1.5" marker-end="url(#arrow)" x1="-38.44863011538943" y1="-235.80853489427227" x2="-48.06826310375386" y2="-203.2637946445669"></line><line stroke-width="1.5" marker-end="url(#arrow)" x1="-174.93297969937822" y1="-28.937741670113216" x2="-167.81592875337478" y2="-63.307334054971314"></line><line stroke-width="1.5" marker-end="url(#arrow)" x1="-106.1832284726371" y1="158.93625697677595" x2="-86.98709936158185" y2="108.61985907469739"></line><line stroke-width="1.5" marker-end="url(#arrow)" x1="-241.83624607810444" y1="-152.7911833215659" x2="-206.19650820481277" y2="-142.84790226282252"></line><line stroke-width="1.5" marker-end="url(#arrow)" x1="19.00872594340975" y1="195.417863106781" x2="25.4280628503507" y2="163.71490547378554"></line><line stroke-width="1.5" marker-end="url(#arrow)" x1="-16.22175376080639" y1="-50.947623839176" x2="-14.958394205153684" y2="-20.593528840927853"></line><line stroke-width="1.5" marker-end="url(#arrow)" x1="166.19102350112917" y1="-254.70703817804676" x2="192.58867342135602" y2="-236.65871173364152"></line><line stroke-width="1.5" marker-end="url(#arrow)" x1="-155.5026261378023" y1="-99.6845655586071" x2="-163.74900922004795" y2="32.14115024434382"></line><line stroke-width="1.5" marker-end="url(#arrow)" x1="17.649498938898056" y1="306.70205736395695" x2="56.43692789542334" y2="300.1592813238536"></line><line stroke-width="1.5" marker-end="url(#arrow)" x1="-188.30426347718304" y1="-117.58385172599105" x2="-155.5026261378023" y2="-99.6845655586071"></line><line stroke-width="1.5" marker-end="url(#arrow)" x1="192.58867342135602" y1="-236.65871173364152" x2="215.0514012203645" y2="-214.43910208942518"></line><line stroke-width="1.5" marker-end="url(#arrow)" x1="-178.2783917500111" y1="-148.1133096827823" x2="-155.5026261378023" y2="-99.6845655586071"></line><line stroke-width="1.5" marker-end="url(#arrow)" x1="53.18481938681492" y1="40.160791593886984" x2="67.04970726871144" y2="70.13995215818721"></line><line stroke-width="1.5" marker-end="url(#arrow)" x1="-80.96535486754375" y1="-194.3261400964695" x2="-48.06826310375386" y2="-203.2637946445669"></line><line stroke-width="1.5" marker-end="url(#arrow)" x1="-122.5482458890749" y1="25.412580191133713" x2="-163.74900922004795" y2="32.14115024434382"></line><line stroke-width="1.5" marker-end="url(#arrow)" x1="-68.81338023128994" y1="-177.34846432710583" x2="-48.06826310375386" y2="-203.2637946445669"></line><line stroke-width="1.5" marker-end="url(#arrow)" x1="287.0556353072666" y1="-111.85828068483757" x2="286.06220935064846" y2="-80.48538792997643"></line><line stroke-width="1.5" marker-end="url(#arrow)" x1="-90.56434946968096" y1="0.15677550229725604" x2="-131.21217733422606" y2="11.561483772862692"></line><line stroke-width="1.5" marker-end="url(#arrow)" x1="253.2608902028154" y1="-79.41186118474418" x2="267.65503309194986" y2="-51.20729352646457"></line><line stroke-width="1.5" marker-end="url(#arrow)" x1="-170.8310217860458" y1="-129.917714129979" x2="-155.5026261378023" y2="-99.6845655586071"></line><line stroke-width="1.5" marker-end="url(#arrow)" x1="257.55802115023585" y1="19.946462854086537" x2="225.29129757744167" y2="40.119071747064126"></line><line stroke-width="1.5" marker-end="url(#arrow)" x1="173.55635377180045" y1="50.189672574966714" x2="141.40366612644002" y2="62.30969001412443"></line><line stroke-width="1.5" marker-end="url(#arrow)" x1="-255.7027380295006" y1="0.12909078170561575" x2="-213.38647197529735" y2="7.48292971063315"></line><line stroke-width="1.5" marker-end="url(#arrow)" x1="-1.3057842670139608" y1="-189.37402358423648" x2="-48.06826310375386" y2="-203.2637946445669"></line><line stroke-width="1.5" marker-end="url(#arrow)" x1="240.27823248226457" y1="-53.907139853584034" x2="232.89324527609472" y2="-24.139005153910034"></line><line stroke-width="1.5" marker-end="url(#arrow)" x1="-160.30160917715762" y1="72.26657128216272" x2="-163.74900922004795" y2="32.14115024434382"></line><line stroke-width="1.5" marker-end="url(#arrow)" x1="271.47750009859794" y1="72.7163592594338" x2="249.33815329470178" y2="55.490068824308885"></line><line stroke-width="1.5" marker-end="url(#arrow)" x1="-53.06468210499688" y1="101.01771546019216" x2="-86.98709936158185" y2="108.61985907469739"></line><line stroke-width="1.5" marker-end="url(#arrow)" x1="195.02093650827393" y1="162.8665141380748" x2="197.67099797383514" y2="195.21946885006577"></line><line stroke-width="1.5" marker-end="url(#arrow)" x1="-37.90250423683439" y1="-157.4632891876951" x2="-48.06826310375386" y2="-203.2637946445669"></line><line stroke-width="1.5" marker-end="url(#arrow)" x1="-64.82582485182648" y1="-164.43222988880174" x2="-48.06826310375386" y2="-203.2637946445669"></line><line stroke-width="1.5" marker-end="url(#arrow)" x1="-93.70468747290876" y1="-207.07138690199426" x2="-48.06826310375386" y2="-203.2637946445669"></line><line stroke-width="1.5" marker-end="url(#arrow)" x1="-27.97170965975429" y1="-233.72768947015317" x2="-48.06826310375386" y2="-203.2637946445669"></line><line stroke-width="1.5" marker-end="url(#arrow)" x1="-53.20278427168266" y1="-158.40609432451066" x2="-48.06826310375386" y2="-203.2637946445669"></line><line stroke-width="1.5" marker-end="url(#arrow)" x1="48.32605457864421" y1="142.3189559229233" x2="7.38606100868982" y2="107.3979383766646"></line><line stroke-width="1.5" marker-end="url(#arrow)" x1="85.98065755474788" y1="39.908481009071096" x2="67.04970726871144" y2="70.13995215818721"></line><line stroke-width="1.5" marker-end="url(#arrow)" x1="-25.030363475523842" y1="-176.98767655330286" x2="-48.06826310375386" y2="-203.2637946445669"></line><line stroke-width="1.5" marker-end="url(#arrow)" x1="-96.19400180097507" y1="73.46789985159413" x2="-130.00487811920794" y2="54.33274610923279"></line><line stroke-width="1.5" marker-end="url(#arrow)" x1="186.07696780051398" y1="-51.30443725003158" x2="180.76210608852986" y2="-16.208735249028386"></line><line stroke-width="1.5" marker-end="url(#arrow)" x1="238.24769542599927" y1="9.069818267290957" x2="225.29129757744167" y2="40.119071747064126"></line><line stroke-width="1.5" marker-end="url(#arrow)" x1="-140.7722228773093" y1="116.2163426328566" x2="-122.61877325754169" y2="91.07755575270215"></line></g><g stroke="#fff" stroke-width="1.5"><circle r="5" fill="#ff7f0e" cx="240.27823248226457" cy="-53.907139853584034"><title>0</title></circle><circle r="5" fill="#1f58b4" cx="232.89324527609472" cy="-24.139005153910034"><title>1</title></circle><circle r="5" fill="#1f58b4" cx="210.9164586816511" cy="-1.1262681443794857"><title>2</title></circle><circle r="5" fill="#1f58b4" cx="198.04709646181578" cy="28.21560930555036"><title>3</title></circle><circle r="5" fill="#1f58b4" cx="173.55635377180045" cy="50.189672574966714"><title>4</title></circle><circle r="5" fill="#1f58b4" cx="141.40366612644002" cy="62.30969001412443"><title>5</title></circle><circle r="5" fill="#1f58b4" cx="110.30236007511287" cy="75.87995127384387"><title>6</title></circle><circle r="5" fill="#2ca02c" cx="67.04970726871144" cy="70.13995215818721"><title>7</title></circle><circle r="5" fill="#ff7f0e" cx="203.394290823676" cy="-145.20433044588563"><title>8</title></circle><circle r="5" fill="#1f58b4" cx="202.06306611404185" cy="-115.05510413523969"><title>9</title></circle><circle r="5" fill="#1f58b4" cx="192.3242227610036" cy="-85.16335789539383"><title>10</title></circle><circle r="5" fill="#1f58b4" cx="186.07696780051398" cy="-51.30443725003158"><title>11</title></circle><circle r="5" fill="#1f58b4" cx="180.76210608852986" cy="-16.208735249028386"><title>12</title></circle><circle r="5" fill="#1f58b4" cx="165.8116471573014" cy="14.648564370667259"><title>13</title></circle><circle r="5" fill="#1f58b4" cx="138.10246402884562" cy="36.74190628599838"><title>14</title></circle><circle r="5" fill="#1f58b4" cx="104.22215259500895" cy="53.43871090413222"><title>15</title></circle><circle r="5" fill="#ff7f0e" cx="-228.7835782924565" cy="122.12196181291807"><title>16</title></circle><circle r="5" fill="#1f58b4" cx="-203.2745152637149" cy="100.14677236503971"><title>17</title></circle><circle r="5" fill="#1f58b4" cx="-180.06793804365108" cy="64.85946808446863"><title>18</title></circle><circle r="5" fill="#1f58b4" cx="-163.74900922004795" cy="32.14115024434382"><title>19</title></circle><circle r="5" fill="#1f58b4" cx="-86.98709936158185" cy="108.61985907469739"><title>20</title></circle><circle r="5" fill="#1f58b4" cx="7.38606100868982" cy="107.3979383766646"><title>21</title></circle><circle r="5" fill="#ff7f0e" cx="86.29300483932379" cy="-110.82648474767937"><title>22</title></circle><circle r="5" fill="#1f58b4" cx="66.17644251674434" cy="-86.39490685943997"><title>23</title></circle><circle r="5" fill="#1f58b4" cx="52.088878470780195" cy="-57.561368658525154"><title>24</title></circle><circle r="5" fill="#1f58b4" cx="50.12650327498291" cy="-25.76298717050731"><title>25</title></circle><circle r="5" fill="#1f58b4" cx="49.796281795764095" cy="6.3042784397112985"><title>26</title></circle><circle r="5" fill="#1f58b4" cx="53.18481938681492" cy="40.160791593886984"><title>27</title></circle><circle r="5" fill="#ff7f0e" cx="-220.01618011166963" cy="-63.09235131791595"><title>28</title></circle><circle r="5" fill="#1f58b4" cx="-186.90592132044623" cy="-78.69320390620416"><title>29</title></circle><circle r="5" fill="#1f58b4" cx="-155.5026261378023" cy="-99.6845655586071"><title>30</title></circle><circle r="5" fill="#ff7f0e" cx="-220.05122359173282" cy="-42.227991131859234"><title>31</title></circle><circle r="5" fill="#1f58b4" cx="-188.38463828576715" cy="-59.32346015217504"><title>32</title></circle><circle r="5" fill="#ff7f0e" cx="-27.97170965975429" cy="-233.72768947015317"><title>33</title></circle><circle r="5" fill="#1f58b4" cx="-48.06826310375386" cy="-203.2637946445669"><title>34</title></circle><circle r="5" fill="#ff7f0e" cx="299.70648251304885" cy="63.25462277530465"><title>35</title></circle><circle r="5" fill="#1f58b4" cx="291.7718848874649" cy="93.24738991317173"><title>36</title></circle><circle r="5" fill="#1f58b4" cx="271.47750009859794" cy="72.7163592594338"><title>37</title></circle><circle r="5" fill="#1f58b4" cx="249.33815329470178" cy="55.490068824308885"><title>38</title></circle><circle r="5" fill="#1f58b4" cx="222.82433817822692" cy="72.26577556867353"><title>39</title></circle><circle r="5" fill="#1f58b4" cx="192.49434350257434" cy="66.84582969398237"><title>40</title></circle><circle r="5" fill="#1f58b4" cx="153.20108982794054" cy="77.56707975668208"><title>41</title></circle><circle r="5" fill="#ff7f0e" cx="-76.31703085877238" cy="-89.12621424390598"><title>42</title></circle><circle r="5" fill="#1f58b4" cx="-113.0915650233633" cy="-99.90977414401823"><title>43</title></circle><circle r="5" fill="#ff7f0e" cx="-53.20278427168266" cy="-158.40609432451066"><title>44</title></circle><circle r="5" fill="#ff7f0e" cx="-222.98608885324052" cy="-130.64429075024603"><title>45</title></circle><circle r="5" fill="#1f58b4" cx="-188.30426347718304" cy="-117.58385172599105"><title>46</title></circle><circle r="5" fill="#ff7f0e" cx="-21.90691170089217" cy="280.0014109817643"><title>47</title></circle><circle r="5" fill="#1f58b4" cx="8.544095965912568" cy="284.62704094887306"><title>48</title></circle><circle r="5" fill="#1f58b4" cx="40.575743042413485" cy="281.4835346748122"><title>49</title></circle><circle r="5" fill="#1f58b4" cx="62.61552540123517" cy="257.52242673067235"><title>50</title></circle><circle r="5" fill="#1f58b4" cx="69.7190790613143" cy="224.72208851491473"><title>51</title></circle><circle r="5" fill="#1f58b4" cx="73.91924565366278" cy="192.4917040464458"><title>52</title></circle><circle r="5" fill="#1f58b4" cx="48.32605457864421" cy="142.3189559229233"><title>53</title></circle><circle r="5" fill="#ff7f0e" cx="67.93177829684771" cy="-118.50492643716588"><title>54</title></circle><circle r="5" fill="#ff7f0e" cx="-281.22004228424083" cy="-33.674099777592076"><title>55</title></circle><circle r="5" fill="#1f58b4" cx="-250.33042071238947" cy="-17.442979128580564"><title>56</title></circle><circle r="5" fill="#1f58b4" cx="-213.38647197529735" cy="7.48292971063315"><title>57</title></circle><circle r="5" fill="#ff7f0e" cx="-249.39813899480757" cy="-83.46392602785765"><title>58</title></circle><circle r="5" fill="#1f58b4" cx="-210.34078702449338" cy="-84.23871348369117"><title>59</title></circle><circle r="5" fill="#ff7f0e" cx="-25.261003983056483" cy="-161.74857496149127"><title>60</title></circle><circle r="5" fill="#ff7f0e" cx="-13.96378455598801" cy="-217.31806867157013"><title>61</title></circle><circle r="5" fill="#ff7f0e" cx="230.90339242282948" cy="-100.27751125280051"><title>62</title></circle><circle r="5" fill="#1f58b4" cx="253.2608902028154" cy="-79.41186118474418"><title>63</title></circle><circle r="5" fill="#1f58b4" cx="267.65503309194986" cy="-51.20729352646457"><title>64</title></circle><circle r="5" fill="#1f58b4" cx="258.79342813668944" cy="-19.20772716537873"><title>65</title></circle><circle r="5" fill="#1f58b4" cx="238.24769542599927" cy="9.069818267290957"><title>66</title></circle><circle r="5" fill="#1f58b4" cx="225.29129757744167" cy="40.119071747064126"><title>67</title></circle><circle r="5" fill="#ff7f0e" cx="-93.70468747290876" cy="-207.07138690199426"><title>68</title></circle><circle r="5" fill="#ff7f0e" cx="-77.5085278884803" cy="-70.26753735367643"><title>69</title></circle><circle r="5" fill="#1f58b4" cx="-112.6552646960668" cy="-86.0604777297756"><title>70</title></circle><circle r="5" fill="#ff7f0e" cx="-189.22667466543152" cy="-186.53981631399316"><title>71</title></circle><circle r="5" fill="#1f58b4" cx="-178.2783917500111" cy="-148.1133096827823"><title>72</title></circle><circle r="5" fill="#ff7f0e" cx="-23.178146721339665" cy="134.08566505860387"><title>73</title></circle><circle r="5" fill="#1f58b4" cx="-16.212229300290637" cy="104.27382049221819"><title>74</title></circle><circle r="5" fill="#1f58b4" cx="-28.176510392957347" cy="77.18592636296621"><title>75</title></circle><circle r="5" fill="#1f58b4" cx="-53.06468210499688" cy="101.01771546019216"><title>76</title></circle><circle r="5" fill="#ff7f0e" cx="-149.26542938087852" cy="249.83308165088366"><title>77</title></circle><circle r="5" fill="#1f58b4" cx="-129.8521530263259" cy="226.40462786080946"><title>78</title></circle><circle r="5" fill="#1f58b4" cx="-113.64504762403128" cy="196.03316400232399"><title>79</title></circle><circle r="5" fill="#1f58b4" cx="-106.1832284726371" cy="158.93625697677595"><title>80</title></circle><circle r="5" fill="#ff7f0e" cx="0.10633233056807569" cy="-200.61803473577902"><title>81</title></circle><circle r="5" fill="#ff7f0e" cx="-291.2363484258947" cy="34.04391136329692"><title>82</title></circle><circle r="5" fill="#1f58b4" cx="-257.891794886308" cy="41.07838054302226"><title>83</title></circle><circle r="5" fill="#1f58b4" cx="-210.11971743709017" cy="34.96625070822373"><title>84</title></circle><circle r="5" fill="#ff7f0e" cx="129.19286934417332" cy="201.23735248180603"><title>85</title></circle><circle r="5" fill="#1f58b4" cx="106.84312637564929" cy="180.26728826413145"><title>86</title></circle><circle r="5" fill="#1f58b4" cx="90.23271580393532" cy="154.93869975364896"><title>87</title></circle><circle r="5" fill="#1f58b4" cx="78.16671667298824" cy="127.96471034526142"><title>88</title></circle><circle r="5" fill="#ff7f0e" cx="-47.96549567999259" cy="17.38681351482406"><title>89</title></circle><circle r="5" fill="#1f58b4" cx="-80.55198939793581" cy="21.898655595089117"><title>90</title></circle><circle r="5" fill="#1f58b4" cx="-122.5482458890749" cy="25.412580191133713"><title>91</title></circle><circle r="5" fill="#ff7f0e" cx="-15.671407354198049" cy="-238.93443544299294"><title>92</title></circle><circle r="5" fill="#ff7f0e" cx="-84.15247834219396" cy="-206.15502842549355"><title>93</title></circle><circle r="5" fill="#ff7f0e" cx="-107.12903204554894" cy="-48.71424690813093"><title>94</title></circle><circle r="5" fill="#1f58b4" cx="-133.03337923877447" cy="-73.63083573019705"><title>95</title></circle><circle r="5" fill="#ff7f0e" cx="174.46772328258507" cy="136.65871741255165"><title>96</title></circle><circle r="5" fill="#1f58b4" cx="144.14832066404807" cy="137.3086483275929"><title>97</title></circle><circle r="5" fill="#1f58b4" cx="111.89487662208974" cy="136.1284152202376"><title>98</title></circle><circle r="5" fill="#ff7f0e" cx="-224.65407028869964" cy="190.03044597185354"><title>99</title></circle><circle r="5" fill="#1f58b4" cx="-194.69759009814058" cy="176.68507816158223"><title>100</title></circle><circle r="5" fill="#1f58b4" cx="-160.28682363825325" cy="155.61030828862334"><title>101</title></circle><circle r="5" fill="#1f58b4" cx="-122.6765460817213" cy="129.02108111838115"><title>102</title></circle><circle r="5" fill="#ff7f0e" cx="-34.18618238456236" cy="-169.38742002336053"><title>103</title></circle><circle r="5" fill="#ff7f0e" cx="-289.46772015643137" cy="-8.43366356373594"><title>104</title></circle><circle r="5" fill="#1f58b4" cx="-255.7027380295006" cy="0.12909078170561575"><title>105</title></circle><circle r="5" fill="#ff7f0e" cx="276.6177327084884" cy="124.95350137736484"><title>106</title></circle><circle r="5" fill="#1f58b4" cx="263.4269944431039" cy="152.38553817627042"><title>107</title></circle><circle r="5" fill="#1f58b4" cx="247.65287578730033" cy="180.08224301784927"><title>108</title></circle><circle r="5" fill="#1f58b4" cx="225.03090917110245" cy="204.2730199775651"><title>109</title></circle><circle r="5" fill="#1f58b4" cx="199.11008732061205" cy="227.2953560764063"><title>110</title></circle><circle r="5" fill="#1f58b4" cx="174.19928671724304" cy="250.34839808901683"><title>111</title></circle><circle r="5" fill="#1f58b4" cx="143.9083784831473" cy="268.49591504535425"><title>112</title></circle><circle r="5" fill="#1f58b4" cx="111.0664908569083" cy="265.7555516485427"><title>113</title></circle><circle r="5" fill="#1f58b4" cx="89.36595187455907" cy="237.97977763666816"><title>114</title></circle><circle r="5" fill="#ff7f0e" cx="113.32912562735414" cy="-173.1123215735069"><title>115</title></circle><circle r="5" fill="#1f58b4" cx="142.96253461686277" cy="-176.6999334599142"><title>116</title></circle><circle r="5" fill="#1f58b4" cx="140.7256385767475" cy="-145.86126815321333"><title>117</title></circle><circle r="5" fill="#1f58b4" cx="134.68818201615744" cy="-114.60506784704587"><title>118</title></circle><circle r="5" fill="#1f58b4" cx="121.7731773784845" cy="-81.75109690183328"><title>119</title></circle><circle r="5" fill="#1f58b4" cx="103.72620160747832" cy="-47.8949914498726"><title>120</title></circle><circle r="5" fill="#1f58b4" cx="81.80026171448698" cy="-18.015503269714507"><title>121</title></circle><circle r="5" fill="#1f58b4" cx="72.0223299779051" cy="25.687052412584535"><title>122</title></circle><circle r="5" fill="#ff7f0e" cx="213.79584270195062" cy="-63.73554433895927"><title>123</title></circle><circle r="5" fill="#1f58b4" cx="207.63678229066565" cy="-33.19142819888551"><title>124</title></circle><circle r="5" fill="#ff7f0e" cx="122.45886985235263" cy="-200.19599980635599"><title>125</title></circle><circle r="5" fill="#ff7f0e" cx="-174.93297969937822" cy="-28.937741670113216"><title>126</title></circle><circle r="5" fill="#1f58b4" cx="-167.81592875337478" cy="-63.307334054971314"><title>127</title></circle><circle r="5" fill="#ff7f0e" cx="-1.5334366593801871" cy="-210.52342739808367"><title>128</title></circle><circle r="5" fill="#ff7f0e" cx="-64.11035071721358" cy="74.34176967472328"><title>129</title></circle><circle r="5" fill="#1f58b4" cx="-96.19400180097507" cy="73.46789985159413"><title>130</title></circle><circle r="5" fill="#1f58b4" cx="-130.00487811920794" cy="54.33274610923279"><title>131</title></circle><circle r="5" fill="#ff7f0e" cx="-81.61000927044873" cy="-181.86093384420036"><title>132</title></circle><circle r="5" fill="#ff7f0e" cx="-68.81338023128994" cy="-177.34846432710583"><title>133</title></circle><circle r="5" fill="#ff7f0e" cx="-10.792254171103085" cy="-196.30762728685312"><title>134</title></circle><circle r="5" fill="#ff7f0e" cx="-273.99274987326385" cy="15.800162258583567"><title>135</title></circle><circle r="5" fill="#1f58b4" cx="-239.56436187532168" cy="18.549532402843926"><title>136</title></circle><circle r="5" fill="#1f58b4" cx="-197.10309240843046" cy="19.74724156859337"><title>137</title></circle><circle r="5" fill="#ff7f0e" cx="-54.913450258419545" cy="-170.3284308237888"><title>138</title></circle><circle r="5" fill="#ff7f0e" cx="-191.35397490439445" cy="-159.9699935458896"><title>139</title></circle><circle r="5" fill="#1f58b4" cx="-170.8310217860458" cy="-129.917714129979"><title>140</title></circle><circle r="5" fill="#ff7f0e" cx="-288.6332359033395" cy="54.24410315098664"><title>141</title></circle><circle r="5" fill="#ff7f0e" cx="-44.73270640679232" cy="-165.57315605327912"><title>142</title></circle><circle r="5" fill="#ff7f0e" cx="63.544565216934615" cy="-294.8027310139034"><title>143</title></circle><circle r="5" fill="#1f58b4" cx="89.4893223245036" cy="-277.7627428217095"><title>144</title></circle><circle r="5" fill="#1f58b4" cx="113.10526193377414" cy="-253.22856973424686"><title>145</title></circle><circle r="5" fill="#1f58b4" cx="141.69490366431162" cy="-235.66900088307028"><title>146</title></circle><circle r="5" fill="#1f58b4" cx="172.45648902853375" cy="-217.36594674685298"><title>147</title></circle><circle r="5" fill="#1f58b4" cx="197.8992419366185" cy="-191.6773897404687"><title>148</title></circle><circle r="5" fill="#1f58b4" cx="220.31951215829062" cy="-164.99978240799675"><title>149</title></circle><circle r="5" fill="#1f58b4" cx="239.2152533162376" cy="-134.82404755028585"><title>150</title></circle><circle r="5" fill="#1f58b4" cx="262.5397316327987" cy="-107.44838164481631"><title>151</title></circle><circle r="5" fill="#1f58b4" cx="286.06220935064846" cy="-80.48538792997643"><title>152</title></circle><circle r="5" fill="#1f58b4" cx="293.5041783570982" cy="-45.87277312747552"><title>153</title></circle><circle r="5" fill="#1f58b4" cx="281.27929602391987" cy="-10.261665001763811"><title>154</title></circle><circle r="5" fill="#1f58b4" cx="257.55802115023585" cy="19.946462854086537"><title>155</title></circle><circle r="5" fill="#ff7f0e" cx="-86.70477000359229" cy="-51.67045951266795"><title>156</title></circle><circle r="5" fill="#1f58b4" cx="-118.73066448627652" cy="-72.68562082425213"><title>157</title></circle><circle r="5" fill="#ff7f0e" cx="-140.7722228773093" cy="116.2163426328566"><title>158</title></circle><circle r="5" fill="#1f58b4" cx="-122.61877325754169" cy="91.07755575270215"><title>159</title></circle><circle r="5" fill="#1f58b4" cx="-144.2903856231957" cy="62.71078546857225"><title>160</title></circle><circle r="5" fill="#ff7f0e" cx="-248.12864514204165" cy="110.22670228680633"><title>161</title></circle><circle r="5" fill="#1f58b4" cx="-223.8806829738942" cy="85.15410258836147"><title>162</title></circle><circle r="5" fill="#1f58b4" cx="-194.30514313053447" cy="54.28422326067507"><title>163</title></circle><circle r="5" fill="#ff7f0e" cx="-283.53992560329095" cy="81.28415267127752"><title>164</title></circle><circle r="5" fill="#1f58b4" cx="-253.33943768795137" cy="66.1757266590831"><title>165</title></circle><circle r="5" fill="#1f58b4" cx="-214.42359418762965" cy="55.888573889969074"><title>166</title></circle><circle r="5" fill="#ff7f0e" cx="28.78540349173537" cy="-83.05501540683221"><title>167</title></circle><circle r="5" fill="#1f58b4" cx="9.87872666953378" cy="-60.20621162904397"><title>168</title></circle><circle r="5" fill="#1f58b4" cx="20.72065509910873" cy="-31.97752306427561"><title>169</title></circle><circle r="5" fill="#1f58b4" cx="16.726443341956966" cy="-1.4604437582602525"><title>170</title></circle><circle r="5" fill="#1f58b4" cx="21.248156830238475" cy="29.692389711821242"><title>171</title></circle><circle r="5" fill="#1f58b4" cx="37.159224584256336" cy="58.589031322944585"><title>172</title></circle><circle r="5" fill="#ff7f0e" cx="-185.94333940753683" cy="234.31429131321195"><title>173</title></circle><circle r="5" fill="#1f58b4" cx="-158.7927520953051" cy="218.09220430706802"><title>174</title></circle><circle r="5" fill="#1f58b4" cx="-133.25627093828257" cy="190.89452940245513"><title>175</title></circle><circle r="5" fill="#ff7f0e" cx="175.6246386428319" cy="101.72200771938671"><title>176</title></circle><circle r="5" fill="#1f58b4" cx="145.37474675966135" cy="108.7127568943256"><title>177</title></circle><circle r="5" fill="#1f58b4" cx="113.15599863497188" cy="106.44342400146493"><title>178</title></circle><circle r="5" fill="#1f58b4" cx="82.04234605916453" cy="97.37260997490917"><title>179</title></circle><circle r="5" fill="#ff7f0e" cx="-76.00608816848322" cy="-170.85131514096176"><title>180</title></circle><circle r="5" fill="#ff7f0e" cx="241.78895842446414" cy="92.34230110456036"><title>181</title></circle><circle r="5" fill="#1f58b4" cx="213.05853958828942" cy="103.63364476143288"><title>182</title></circle><circle r="5" fill="#1f58b4" cx="201.27853162016007" cy="131.8312913413161"><title>183</title></circle><circle r="5" fill="#1f58b4" cx="195.02093650827393" cy="162.8665141380748"><title>184</title></circle><circle r="5" fill="#1f58b4" cx="197.67099797383514" cy="195.21946885006577"><title>185</title></circle><circle r="5" fill="#ff7f0e" cx="-16.22175376080639" cy="-50.947623839176"><title>186</title></circle><circle r="5" fill="#1f58b4" cx="-14.958394205153684" cy="-20.593528840927853"><title>187</title></circle><circle r="5" fill="#1f58b4" cx="-12.588367191724245" cy="11.27438383724849"><title>188</title></circle><circle r="5" fill="#1f58b4" cx="-6.569341334053996" cy="42.49554281948976"><title>189</title></circle><circle r="5" fill="#1f58b4" cx="10.534019968397816" cy="69.6696300936222"><title>190</title></circle><circle r="5" fill="#1f58b4" cx="34.4443770513062" cy="92.19979675719277"><title>191</title></circle><circle r="5" fill="#ff7f0e" cx="-91.91279229216107" cy="-219.56564239722027"><title>192</title></circle><circle r="5" fill="#ff7f0e" cx="-25.030363475523842" cy="-176.98767655330286"><title>193</title></circle><circle r="5" fill="#ff7f0e" cx="-50.999129457687715" cy="264.8945706551358"><title>194</title></circle><circle r="5" fill="#1f58b4" cx="-26.483572724305613" cy="244.94344488957148"><title>195</title></circle><circle r="5" fill="#1f58b4" cx="-12.183627385758674" cy="213.2894283291893"><title>196</title></circle><circle r="5" fill="#1f58b4" cx="-5.471347871350621" cy="177.62185282412062"><title>197</title></circle><circle r="5" fill="#1f58b4" cx="1.8657830761489216" cy="141.84480257373949"><title>198</title></circle><circle r="5" fill="#ff7f0e" cx="-6.244575346804629" cy="-181.92098282969076"><title>199</title></circle><circle r="5" fill="#ff7f0e" cx="-90.23289109234194" cy="-191.1968765945241"><title>200</title></circle><circle r="5" fill="#ff7f0e" cx="73.19210613442304" cy="-258.4270261372279"><title>201</title></circle><circle r="5" fill="#1f58b4" cx="90.92397538902915" cy="-232.9420445198779"><title>202</title></circle><circle r="5" fill="#1f58b4" cx="91.85654614346569" cy="-201.07132971941687"><title>203</title></circle><circle r="5" fill="#1f58b4" cx="90.68903932297958" cy="-166.8859095494111"><title>204</title></circle><circle r="5" fill="#1f58b4" cx="101.46181727796441" cy="-133.461385136114"><title>205</title></circle><circle r="5" fill="#1f58b4" cx="99.41813365116612" cy="-93.64819769996903"><title>206</title></circle><circle r="5" fill="#1f58b4" cx="84.57366779442172" cy="-56.087291806340446"><title>207</title></circle><circle r="5" fill="#ff7f0e" cx="-223.4014428611286" cy="-176.2478122769318"><title>208</title></circle><circle r="5" fill="#1f58b4" cx="-206.19650820481277" cy="-142.84790226282252"><title>209</title></circle><circle r="5" fill="#ff7f0e" cx="-13.958877008671049" cy="-206.9944530732467"><title>210</title></circle><circle r="5" fill="#ff7f0e" cx="247.98055706552745" cy="117.64856374286052"><title>211</title></circle><circle r="5" fill="#1f58b4" cx="231.34272184187637" cy="142.93963809025934"><title>212</title></circle><circle r="5" fill="#1f58b4" cx="223.6161994440653" cy="172.58591842693087"><title>213</title></circle><circle r="5" fill="#ff7f0e" cx="-142.86337820103645" cy="-165.04166497984917"><title>214</title></circle><circle r="5" fill="#1f58b4" cx="-141.5185600572627" cy="-131.2395939727633"><title>215</title></circle><circle r="5" fill="#ff7f0e" cx="113.02543162724976" cy="-285.07558835869344"><title>216</title></circle><circle r="5" fill="#1f58b4" cx="138.6348027052111" cy="-269.53098174311975"><title>217</title></circle><circle r="5" fill="#1f58b4" cx="166.19102350112917" cy="-254.70703817804676"><title>218</title></circle><circle r="5" fill="#1f58b4" cx="192.58867342135602" cy="-236.65871173364152"><title>219</title></circle><circle r="5" fill="#1f58b4" cx="215.0514012203645" cy="-214.43910208942518"><title>220</title></circle><circle r="5" fill="#1f58b4" cx="235.5945446599288" cy="-190.7134804377223"><title>221</title></circle><circle r="5" fill="#1f58b4" cx="253.48320045175987" cy="-165.34465103127044"><title>222</title></circle><circle r="5" fill="#1f58b4" cx="269.9265351094602" cy="-139.01030349310253"><title>223</title></circle><circle r="5" fill="#1f58b4" cx="287.0556353072666" cy="-111.85828068483757"><title>224</title></circle><circle r="5" fill="#ff7f0e" cx="-245.13220109163015" cy="-68.2493354392153"><title>225</title></circle><circle r="5" fill="#ff7f0e" cx="-86.12523475000589" cy="-230.80280112656942"><title>226</title></circle><circle r="5" fill="#ff7f0e" cx="-74.2599217120552" cy="240.76547023422106"><title>227</title></circle><circle r="5" fill="#1f58b4" cx="-68.3910971063905" cy="209.25765609146615"><title>228</title></circle><circle r="5" fill="#1f58b4" cx="-61.13710368686064" cy="174.45346351466793"><title>229</title></circle><circle r="5" fill="#1f58b4" cx="-60.70519777902329" cy="138.0719094852978"><title>230</title></circle><circle r="5" fill="#ff7f0e" cx="-230.08915114255066" cy="-96.93509893142715"><title>231</title></circle><circle r="5" fill="#1f58b4" cx="-192.80920480080206" cy="-98.02820883253042"><title>232</title></circle><circle r="5" fill="#ff7f0e" cx="-205.37664545782326" cy="-29.69631334761343"><title>233</title></circle><circle r="5" fill="#ff7f0e" cx="-45.686534645284844" cy="-243.01169719731166"><title>234</title></circle><circle r="5" fill="#ff7f0e" cx="-38.44863011538943" cy="-235.80853489427227"><title>235</title></circle><circle r="5" fill="#ff7f0e" cx="-24.408186134172226" cy="-245.0598562460015"><title>236</title></circle><circle r="5" fill="#ff7f0e" cx="-46.29634458965022" cy="227.68510897022938"><title>237</title></circle><circle r="5" fill="#1f58b4" cx="-35.97152417952342" cy="197.89176096765922"><title>238</title></circle><circle r="5" fill="#1f58b4" cx="-37.828432969237596" cy="163.96971232075478"><title>239</title></circle><circle r="5" fill="#ff7f0e" cx="163.21592081477849" cy="-61.33885827552912"><title>240</title></circle><circle r="5" fill="#1f58b4" cx="155.1995052384637" cy="-31.24249576760497"><title>241</title></circle><circle r="5" fill="#1f58b4" cx="141.06912152431306" cy="-2.6821754121659724"><title>242</title></circle><circle r="5" fill="#1f58b4" cx="121.53124909411976" cy="23.851822076728837"><title>243</title></circle><circle r="5" fill="#ff7f0e" cx="-50.59251979231137" cy="46.63431409486729"><title>244</title></circle><circle r="5" fill="#1f58b4" cx="-83.36221094263938" cy="46.71050492384321"><title>245</title></circle><circle r="5" fill="#1f58b4" cx="-124.02187192251479" cy="40.82636521031623"><title>246</title></circle><circle r="5" fill="#ff7f0e" cx="-247.44384060323478" cy="-125.56012111424754"><title>247</title></circle><circle r="5" fill="#1f58b4" cx="-211.55376322490002" cy="-111.11147347283723"><title>248</title></circle><circle r="5" fill="#ff7f0e" cx="-19.076322427497217" cy="-187.51020638357912"><title>249</title></circle><circle r="5" fill="#ff7f0e" cx="-80.96535486754375" cy="-194.3261400964695"><title>250</title></circle><circle r="5" fill="#ff7f0e" cx="-58.88976564225528" cy="-11.026297702355238"><title>251</title></circle><circle r="5" fill="#1f58b4" cx="-90.56434946968096" cy="0.15677550229725604"><title>252</title></circle><circle r="5" fill="#1f58b4" cx="-131.21217733422606" cy="11.561483772862692"><title>253</title></circle><circle r="5" fill="#ff7f0e" cx="172.75726766427198" cy="188.05038401923537"><title>254</title></circle><circle r="5" fill="#1f58b4" cx="164.13432471698138" cy="216.76584533827562"><title>255</title></circle><circle r="5" fill="#1f58b4" cx="150.1983657328619" cy="242.70922443368806"><title>256</title></circle><circle r="5" fill="#1f58b4" cx="121.48877047645539" cy="236.3754078876567"><title>257</title></circle><circle r="5" fill="#1f58b4" cx="100.61513327458309" cy="211.56138828586592"><title>258</title></circle><circle r="5" fill="#ff7f0e" cx="46.84572145194557" cy="-109.95886727608833"><title>259</title></circle><circle r="5" fill="#ff7f0e" cx="-181.46750769401987" cy="141.45897686442322"><title>260</title></circle><circle r="5" fill="#1f58b4" cx="-168.98528039677666" cy="111.38823774925169"><title>261</title></circle><circle r="5" fill="#1f58b4" cx="-160.30160917715762" cy="72.26657128216272"><title>262</title></circle><circle r="5" fill="#ff7f0e" cx="172.90717175862352" cy="-185.35715137472593"><title>263</title></circle><circle r="5" fill="#1f58b4" cx="174.9844368867682" cy="-155.4177246590928"><title>264</title></circle><circle r="5" fill="#1f58b4" cx="169.51054822235184" cy="-124.49012060019005"><title>265</title></circle><circle r="5" fill="#1f58b4" cx="156.4121671879481" cy="-93.74525633553692"><title>266</title></circle><circle r="5" fill="#1f58b4" cx="137.29723821574967" cy="-62.38438243799915"><title>267</title></circle><circle r="5" fill="#1f58b4" cx="119.56335599938207" cy="-28.922802767977878"><title>268</title></circle><circle r="5" fill="#1f58b4" cx="100.94702479183081" cy="3.277349560694225"><title>269</title></circle><circle r="5" fill="#1f58b4" cx="85.98065755474788" cy="39.908481009071096"><title>270</title></circle><circle r="5" fill="#ff7f0e" cx="-81.65901100524442" cy="-218.64616162530936"><title>271</title></circle><circle r="5" fill="#ff7f0e" cx="-241.83624607810444" cy="-152.7911833215659"><title>272</title></circle><circle r="5" fill="#ff7f0e" cx="-148.78493391922598" cy="273.70230062627735"><title>273</title></circle><circle r="5" fill="#1f58b4" cx="-118.57064217722534" cy="281.2466525657481"><title>274</title></circle><circle r="5" fill="#1f58b4" cx="-87.47674529727958" cy="289.0606747313646"><title>275</title></circle><circle r="5" fill="#1f58b4" cx="-55.81429275003402" cy="298.09722347218326"><title>276</title></circle><circle r="5" fill="#1f58b4" cx="-21.030910527163314" cy="305.8043707482321"><title>277</title></circle><circle r="5" fill="#1f58b4" cx="17.649498938898056" cy="306.70205736395695"><title>278</title></circle><circle r="5" fill="#1f58b4" cx="56.43692789542334" cy="300.1592813238536"><title>279</title></circle><circle r="5" fill="#1f58b4" cx="83.59127145214067" cy="275.2632992656045"><title>280</title></circle><circle r="5" fill="#ff7f0e" cx="-235.5900186361082" cy="144.84567409637788"><title>281</title></circle><circle r="5" fill="#1f58b4" cx="-205.82455621774548" cy="125.94984660272273"><title>282</title></circle><circle r="5" fill="#1f58b4" cx="-182.95517231299016" cy="80.19820119757075"><title>283</title></circle><circle r="5" fill="#ff7f0e" cx="-37.90250423683439" cy="-157.4632891876951"><title>284</title></circle><circle r="5" fill="#ff7f0e" cx="-73.71359958494625" cy="-226.3392087800837"><title>285</title></circle><circle r="5" fill="#ff7f0e" cx="-221.03838065267263" cy="156.21880781719278"><title>286</title></circle><circle r="5" fill="#ff7f0e" cx="31.407975857805038" cy="258.5532931770347"><title>287</title></circle><circle r="5" fill="#1f58b4" cx="43.54649145026545" cy="230.8635988868479"><title>288</title></circle><circle r="5" fill="#1f58b4" cx="46.74461172635844" cy="200.06195878724483"><title>289</title></circle><circle r="5" fill="#1f58b4" cx="59.05485221988269" cy="170.29314771123526"><title>290</title></circle><circle r="5" fill="#ff7f0e" cx="-171.34413160198258" cy="-185.5353590782418"><title>291</title></circle><circle r="5" fill="#1f58b4" cx="-157.83532013319362" cy="-150.07237356959814"><title>292</title></circle><circle r="5" fill="#ff7f0e" cx="-145.83062503209706" cy="-24.48025930834757"><title>293</title></circle><circle r="5" fill="#1f58b4" cx="-153.2584587023002" cy="-58.764429342595264"><title>294</title></circle><circle r="5" fill="#ff7f0e" cx="-64.82582485182648" cy="-164.43222988880174"><title>295</title></circle><circle r="5" fill="#ff7f0e" cx="-16.779437058397697" cy="-167.52337109413813"><title>296</title></circle><circle r="5" fill="#ff7f0e" cx="145.91551577466632" cy="-206.96261811053802"><title>297</title></circle><circle r="5" fill="#ff7f0e" cx="-8.380042963022307" cy="-230.5035860249021"><title>298</title></circle><circle r="5" fill="#ff7f0e" cx="-158.11309568756164" cy="-187.92574374099658"><title>299</title></circle><circle r="5" fill="#ff7f0e" cx="-234.52074727388717" cy="-166.56377801106495"><title>300</title></circle><circle r="5" fill="#ff7f0e" cx="-201.31473961806503" cy="209.96649492433826"><title>301</title></circle><circle r="5" fill="#1f58b4" cx="-172.51664608835486" cy="195.26228093333253"><title>302</title></circle><circle r="5" fill="#1f58b4" cx="-142.96000172782456" cy="170.0834424159828"><title>303</title></circle><circle r="5" fill="#1f58b4" cx="-110.56984567914937" cy="140.07211767291093"><title>304</title></circle><circle r="5" fill="#ff7f0e" cx="-2.7774994958398906" cy="-221.0397159298313"><title>305</title></circle><circle r="5" fill="#ff7f0e" cx="-201.10671739913857" cy="-179.14895572697844"><title>306</title></circle><circle r="5" fill="#ff7f0e" cx="-273.22689969153464" cy="106.84599447967975"><title>307</title></circle><circle r="5" fill="#1f58b4" cx="-247.0640185039886" cy="84.13814801582369"><title>308</title></circle><circle r="5" fill="#ff7f0e" cx="-117.51401408098666" cy="-30.171688505885754"><title>309</title></circle><circle r="5" fill="#1f58b4" cx="-138.1350222881883" cy="-59.73068294254614"><title>310</title></circle><circle r="5" fill="#ff7f0e" cx="-47.58567010089137" cy="-252.4611165133671"><title>311</title></circle><circle r="5" fill="#ff7f0e" cx="1.3673034171923033" cy="254.76769650165923"><title>312</title></circle><circle r="5" fill="#1f58b4" cx="14.717448844521204" cy="227.11281356717424"><title>313</title></circle><circle r="5" fill="#1f58b4" cx="19.00872594340975" cy="195.417863106781"><title>314</title></circle><circle r="5" fill="#1f58b4" cx="25.4280628503507" cy="163.71490547378554"><title>315</title></circle><circle r="5" fill="#1f58b4" cx="28.51126472458525" cy="130.34484316924355"><title>316</title></circle><circle r="5" fill="#ff7f0e" cx="-69.1825543503994" cy="-246.50956878885614"><title>317</title></circle><circle r="5" fill="#ff7f0e" cx="154.07936421935182" cy="178.3964224777255"><title>318</title></circle><circle r="5" fill="#1f58b4" cx="130.91778651139646" cy="160.36281899808807"><title>319</title></circle><circle r="5" fill="#ff7f0e" cx="-34.541155360136294" cy="-249.13531860302152"><title>320</title></circle><circle r="5" fill="#ff7f0e" cx="-58.55061737945278" cy="-248.39811139947886"><title>321</title></circle><circle r="5" fill="#ff7f0e" cx="307.9282445584376" cy="-10.421077241495961"><title>322</title></circle><circle r="5" fill="#1f58b4" cx="300.01645010195995" cy="18.771123495491818"><title>323</title></circle><circle r="5" fill="#1f58b4" cx="277.6604327049801" cy="40.05095894940864"><title>324</title></circle><circle r="5" fill="#ff7f0e" cx="-86.55014064897262" cy="-107.76396527284885"><title>325</title></circle><circle r="5" fill="#1f58b4" cx="-121.28476618500015" cy="-114.35941244850675"><title>326</title></circle><circle r="5" fill="#ff7f0e" cx="-67.05344366077787" cy="-235.4833134213965"><title>327</title></circle><circle r="5" fill="#ff7f0e" cx="-11.975538929874833" cy="-175.3379266418517"><title>328</title></circle><circle r="5" fill="#ff7f0e" cx="-250.59337797543256" cy="-109.58761722512256"><title>329</title></circle><circle r="5" fill="#ff7f0e" cx="-103.74271012979136" cy="252.2651415836719"><title>330</title></circle><circle r="5" fill="#1f58b4" cx="-97.66657455120048" cy="221.29472220507805"><title>331</title></circle><circle r="5" fill="#1f58b4" cx="-88.72941840496307" cy="185.24773170293162"><title>332</title></circle><circle r="5" fill="#1f58b4" cx="-83.86851327743798" cy="145.65534000183735"><title>333</title></circle><circle r="5" fill="#ff7f0e" cx="-55.514156717521985" cy="-236.77039090207901"><title>334</title></circle><circle r="5" fill="#ff7f0e" cx="-78.81982238969503" cy="-239.04677726523502"><title>335</title></circle><circle r="5" fill="#ff7f0e" cx="-20.28088169823641" cy="-226.15258706796962"><title>336</title></circle><circle r="5" fill="#ff7f0e" cx="-1.3057842670139608" cy="-189.37402358423648"><title>337</title></circle></g></svg>
